<?xml version="1.0" encoding="iso-8859-1"?>
<!-- Uploaded to: SVG Repo, www.svgrepo.com, Generator: SVG Repo Mixer Tools -->
<svg fill="#000000" height="800px" width="800px" version="1.1" id="Layer_1" xmlns="http://www.w3.org/2000/svg" xmlns:xlink="http://www.w3.org/1999/xlink" 
	 viewBox="0 0 512 512" xml:space="preserve">
<g>
	<g>
		<g>
			<path d="M256,0C114.618,0,0,114.618,0,256s114.618,256,256,256s256-114.618,256-256S397.382,0,256,0z M256,469.333
				c-117.818,0-213.333-95.515-213.333-213.333S138.182,42.667,256,42.667S469.333,138.182,469.333,256S373.818,469.333,256,469.333
				z"/>
			<path d="M320,256c0-35.355-28.645-64-64-64s-64,28.645-64,64s28.645,64,64,64S320,291.355,320,256z M234.667,256
				c0-11.791,9.542-21.333,21.333-21.333s21.333,9.542,21.333,21.333s-9.542,21.333-21.333,21.333S234.667,267.791,234.667,256z"/>
			<path d="M277.333,106.667c0-11.782-9.551-21.333-21.333-21.333c-94.257,0-170.667,76.41-170.667,170.667
				c0,11.782,9.551,21.333,21.333,21.333c11.782,0,21.333-9.551,21.333-21.333c0-70.693,57.307-128,128-128
				C267.782,128,277.333,118.449,277.333,106.667z"/>
			<path d="M405.333,234.667C393.551,234.667,384,244.218,384,256c0,70.693-57.307,128-128,128
				c-11.782,0-21.333,9.551-21.333,21.333c0,11.782,9.551,21.333,21.333,21.333c94.257,0,170.667-76.41,170.667-170.667
				C426.667,244.218,417.115,234.667,405.333,234.667z"/>
		</g>
	</g>
</g>
</svg>